<svg xmlns="http://www.w3.org/2000/svg" viewBox="0 0 100 100" width="100" height="100">
  <path d="M89.7 20L76.2 9.2c-1.9-1.5-4.4-1.7-6.5-0.5L50 20.6 30.3 8.7c-2.1-1.2-4.6-1-6.5 0.5L10.3 20c-1.9 1.5-2.9 3.8-2.9 6.2v47.6c0 2.4 1.1 4.7 2.9 6.2l13.5 10.8c1.9 1.5 4.4 1.7 6.5 0.5L50 79.4l19.7 11.9c2.1 1.2 4.6 1 6.5-0.5l13.5-10.8c1.9-1.5 2.9-3.8 2.9-6.2V26.2c0-2.4-1.1-4.7-2.9-6.2z" fill="#0668E1"/>
  <path d="M50 20.6v58.8l19.7 11.9c2.1 1.2 4.6 1 6.5-0.5l13.5-10.8c1.9-1.5 2.9-3.8 2.9-6.2V26.2c0-2.4-1.1-4.7-2.9-6.2L76.2 9.2c-1.9-1.5-4.4-1.7-6.5-0.5L50 20.6z" fill="#0081FB"/>
</svg>
